<mxfile host="app.diagrams.net" modified="2021-10-21T13:00:53.830Z" agent="5.0 (Macintosh; Intel Mac OS X 10_15_7) AppleWebKit/537.36 (KHTML, like Gecko) Chrome/86.0.4240.193 Safari/537.36" etag="tXndVmS44PWaJ1jv9Tb6" version="15.5.8" type="github">
  <diagram id="q60NOsubgiHEZN_P3gwd" name="Page-1">
    <mxGraphModel dx="946" dy="536" grid="1" gridSize="10" guides="1" tooltips="1" connect="1" arrows="1" fold="1" page="1" pageScale="1" pageWidth="827" pageHeight="1169" math="0" shadow="0">
      <root>
        <mxCell id="0" />
        <mxCell id="1" parent="0" />
        <mxCell id="1i8p1MWbgVd3atl5uU15-1" value="" style="rounded=0;whiteSpace=wrap;html=1;fillColor=#dae8fc;strokeColor=#6c8ebf;" vertex="1" parent="1">
          <mxGeometry x="270" y="130" width="370" height="250" as="geometry" />
        </mxCell>
        <mxCell id="1i8p1MWbgVd3atl5uU15-2" value="&lt;pre&gt;DefaultCoordinator&lt;/pre&gt;" style="text;html=1;align=center;verticalAlign=middle;resizable=0;points=[];autosize=1;strokeColor=none;fillColor=none;" vertex="1" parent="1">
          <mxGeometry x="400" y="140" width="150" height="40" as="geometry" />
        </mxCell>
        <mxCell id="1i8p1MWbgVd3atl5uU15-3" value="" style="rounded=0;whiteSpace=wrap;html=1;fillColor=#ffe6cc;strokeColor=#d79b00;" vertex="1" parent="1">
          <mxGeometry x="325" y="190" width="265" height="170" as="geometry" />
        </mxCell>
        <mxCell id="1i8p1MWbgVd3atl5uU15-4" value="&lt;pre&gt;DefaultCore&lt;/pre&gt;" style="text;html=1;align=center;verticalAlign=middle;resizable=0;points=[];autosize=1;strokeColor=none;fillColor=none;" vertex="1" parent="1">
          <mxGeometry x="420" y="190" width="90" height="40" as="geometry" />
        </mxCell>
        <mxCell id="1i8p1MWbgVd3atl5uU15-6" value="&lt;pre&gt;ATCore&lt;/pre&gt;" style="rounded=0;whiteSpace=wrap;html=1;fillColor=#f5f5f5;fontColor=#333333;strokeColor=#666666;" vertex="1" parent="1">
          <mxGeometry x="350" y="230" width="100" height="50" as="geometry" />
        </mxCell>
        <mxCell id="1i8p1MWbgVd3atl5uU15-7" value="&lt;pre&gt;&lt;pre&gt;SagaCore&lt;/pre&gt;&lt;/pre&gt;" style="rounded=0;whiteSpace=wrap;html=1;fillColor=#f5f5f5;strokeColor=#666666;fontColor=#333333;" vertex="1" parent="1">
          <mxGeometry x="470" y="230" width="100" height="50" as="geometry" />
        </mxCell>
        <mxCell id="1i8p1MWbgVd3atl5uU15-8" value="&lt;pre&gt;&lt;pre&gt;&lt;pre&gt;TccCore&lt;/pre&gt;&lt;/pre&gt;&lt;/pre&gt;" style="rounded=0;whiteSpace=wrap;html=1;fillColor=#f5f5f5;fontColor=#333333;strokeColor=#666666;" vertex="1" parent="1">
          <mxGeometry x="350" y="290" width="100" height="50" as="geometry" />
        </mxCell>
        <mxCell id="1i8p1MWbgVd3atl5uU15-9" value="&lt;pre&gt;&lt;pre&gt;&lt;pre&gt;&lt;pre&gt;XACore&lt;/pre&gt;&lt;/pre&gt;&lt;/pre&gt;&lt;/pre&gt;" style="rounded=0;whiteSpace=wrap;html=1;fillColor=#f5f5f5;fontColor=#333333;strokeColor=#666666;" vertex="1" parent="1">
          <mxGeometry x="470" y="290" width="100" height="50" as="geometry" />
        </mxCell>
      </root>
    </mxGraphModel>
  </diagram>
</mxfile>
